<?xml version="1.0" encoding="utf-8"?>
<!-- Generator: Adobe Illustrator 16.0.0, SVG Export Plug-In . SVG Version: 6.00 Build 0)  -->
<!DOCTYPE svg PUBLIC "-//W3C//DTD SVG 1.1//EN" "http://www.w3.org/Graphics/SVG/1.1/DTD/svg11.dtd">
<svg version="1.1" id="Layer_1" xmlns="http://www.w3.org/2000/svg" xmlns:xlink="http://www.w3.org/1999/xlink" x="0px" y="0px"
	 width="275px" height="152px" viewBox="0 0 275 152" enable-background="new 0 0 275 152" xml:space="preserve">
<path fill="#007AC2" d="M23.605,25.432L0.308,71.99l23.297,46.579h23.297L23.605,71.99l23.297-46.558H23.605z M228.095,25.432
	l23.299,46.558l-23.299,46.579h23.299l23.299-46.579l-23.299-46.558H228.095z"/>
<g>
	<path fill="#007AC2" d="M89.565,50.582v68.051H61.881V25.558h35.525c10.818,0,19.205,2.683,25.161,8.046
		c6.637,6,9.956,13.615,9.956,22.842c0,9.41-4.115,17.343-12.342,23.797l15.956,38.39h-29.047L93.656,88.631V64.697h2.182
		c5.818,0,8.728-2.5,8.728-7.5c0-4.409-3.365-6.614-10.092-6.614H89.565z"/>
	<path fill="#007AC2" d="M180.799,58.833V83.38h-7.705v35.253h-27.685V25.558h27.685v33.275H180.799z M213.187,25.558v93.075
		h-27.684V25.558H213.187z"/>
</g>
<g>
</g>
<g>
</g>
<g>
</g>
<g>
</g>
<g>
</g>
<g>
</g>
</svg>
